<svg width="14" height="15" viewBox="0 0 14 15" fill="none" xmlns="http://www.w3.org/2000/svg">
<path d="M12.1505 0H2.19626C1.35683 0 0.673401 0.683429 0.673401 1.53029V11.5737C0.673401 12.4206 1.35683 13.104 2.19626 13.104H10.6203L10.2265 11.7297L11.1774 12.6137L12.0763 13.4457L13.6734 14.8571V1.53029C13.6734 0.683429 12.99 0 12.1505 0ZM9.28311 9.70171C9.28311 9.70171 9.01569 9.38229 8.79283 9.1C9.76597 8.82514 10.1374 8.216 10.1374 8.216C9.83283 8.41657 9.54311 8.55771 9.28311 8.65429C8.91169 8.81029 8.55511 8.91429 8.20597 8.97371C7.49283 9.10743 6.83912 9.07029 6.28197 8.96629C5.85854 8.88457 5.49454 8.76571 5.18997 8.64686C5.01912 8.58 4.8334 8.49829 4.64769 8.39429C4.6254 8.37943 4.60312 8.372 4.58083 8.35714C4.56597 8.34971 4.55854 8.34229 4.55112 8.33486C4.4174 8.26057 4.34312 8.20857 4.34312 8.20857C4.34312 8.20857 4.69969 8.80286 5.64312 9.08514C5.42026 9.36743 5.1454 9.70171 5.1454 9.70171C3.50369 9.64971 2.87969 8.57257 2.87969 8.57257C2.87969 6.18057 3.9494 4.24171 3.9494 4.24171C5.01911 3.43943 6.03683 3.46171 6.03683 3.46171L6.11111 3.55086C4.77397 3.93714 4.1574 4.524 4.1574 4.524C4.1574 4.524 4.32083 4.43486 4.59569 4.30857C5.39054 3.95943 6.02197 3.86286 6.28197 3.84057C6.32654 3.83314 6.36369 3.82571 6.40826 3.82571C6.8614 3.76629 7.37397 3.75143 7.90883 3.81086C8.61454 3.89257 9.37226 4.10057 10.1448 4.524C10.1448 4.524 9.55797 3.96686 8.29512 3.58057L8.39912 3.46171C8.39912 3.46171 9.41683 3.43943 10.4865 4.24171C10.4865 4.24171 11.5563 6.18057 11.5563 8.57257C11.5563 8.57257 10.9248 9.64971 9.28311 9.70171Z" fill="white"/>
</svg>
