<svg width="18" height="15" viewBox="0 0 18 15" fill="none" xmlns="http://www.w3.org/2000/svg">
<path d="M5.55988 15C12.2275 15 15.8754 9.46781 15.8754 4.67177C15.8754 4.51625 15.8719 4.35727 15.865 4.20174C16.5746 3.68792 17.187 3.05147 17.6734 2.32231C17.0125 2.61672 16.3108 2.80899 15.5923 2.89257C16.3489 2.43852 16.9153 1.72523 17.1867 0.884918C16.475 1.30724 15.6966 1.60515 14.885 1.76588C14.3382 1.18411 13.6152 0.798911 12.8277 0.669835C12.0403 0.540759 11.2323 0.674996 10.5288 1.05179C9.82517 1.42859 9.26515 2.02695 8.93528 2.75438C8.60541 3.48181 8.52406 4.29778 8.70382 5.07614C7.26267 5.00373 5.8528 4.62889 4.56562 3.97593C3.27844 3.32298 2.14268 2.40647 1.23196 1.28583C0.769088 2.08486 0.627448 3.03038 0.835829 3.93022C1.04421 4.83005 1.58697 5.61669 2.35381 6.13025C1.77812 6.11195 1.21503 5.95676 0.711079 5.6775V5.72243C0.710564 6.56096 1.00009 7.37379 1.53045 8.02275C2.06081 8.67171 2.79927 9.11675 3.62029 9.28222C3.087 9.42831 2.52729 9.44959 1.98446 9.34443C2.21614 10.0656 2.6669 10.6963 3.27383 11.1486C3.88077 11.6009 4.61359 11.8522 5.37003 11.8674C4.08582 12.8774 2.49945 13.4252 0.866412 13.4226C0.576807 13.4222 0.287487 13.4044 0 13.3694C1.65899 14.4351 3.58883 15.001 5.55988 15Z" fill="white"/>
</svg>
